<?xml version="1.0" encoding="UTF-8"?>
<svg width="18px" height="19px" viewBox="0 0 18 19" version="1.1" xmlns="http://www.w3.org/2000/svg" xmlns:xlink="http://www.w3.org/1999/xlink">
    <!-- Generator: Sketch 47.1 (45422) - http://www.bohemiancoding.com/sketch -->
    <title>Fill 12 + Fill 13</title>
    <desc>Created with Sketch.</desc>
    <defs></defs>
    <g id="Other-buttons" stroke="none" stroke-width="1" fill="none" fill-rule="evenodd">
        <g id="btn_linkedin_signin_focus" transform="translate(-15.000000, -15.000000)" fill="#0077B5">
            <g id="Fill-12-+-Fill-13" transform="translate(15.000000, 15.260000)">
                <path d="M2.14407692,0 C3.32653846,0 4.28676923,0.960230769 4.28676923,2.14338462 C4.28676923,3.32723077 3.32653846,4.28746154 2.14407692,4.28746154 C0.956769231,4.28746154 0,3.32723077 0,2.14338462 C0,0.960230769 0.956769231,0 2.14407692,0 L2.14407692,0 Z M0.293538462,5.91230769 L3.99323077,5.91230769 L3.99323077,17.8061538 L0.293538462,17.8061538 L0.293538462,5.91230769 Z" id="Fill-12"></path>
                <path d="M6.23076923,5.83338462 L9.774,5.83338462 L9.774,7.45961538 L9.82453846,7.45961538 C10.3174615,6.52430769 11.5241538,5.53846154 13.3227692,5.53846154 C17.0646923,5.53846154 17.7563077,8.001 17.7563077,11.2043077 L17.7563077,17.7272308 L14.0607692,17.7272308 L14.0607692,11.943 C14.0607692,10.5639231 14.0365385,8.78953846 12.1396154,8.78953846 C10.2163846,8.78953846 9.92284615,10.2925385 9.92284615,11.8446923 L9.92284615,17.7272308 L6.23076923,17.7272308 L6.23076923,5.83338462" id="Fill-13"></path>
            </g>
        </g>
    </g>
</svg>