<svg xmlns="http://www.w3.org/2000/svg" width="30" height="30" viewBox="0 0 30 30">
  <metadata><?xpacket begin="﻿" id="W5M0MpCehiHzreSzNTczkc9d"?>
<x:xmpmeta xmlns:x="adobe:ns:meta/" x:xmptk="Adobe XMP Core 5.6-c138 79.159824, 2016/09/14-01:09:01        ">
   <rdf:RDF xmlns:rdf="http://www.w3.org/1999/02/22-rdf-syntax-ns#">
      <rdf:Description rdf:about=""/>
   </rdf:RDF>
</x:xmpmeta>
                                                                                                    
                                                                                                    
                                                                                                    
                                                                                                    
                                                                                                    
                                                                                                    
                                                                                                    
                                                                                                    
                                                                                                    
                                                                                                    
                                                                                                    
                                                                                                    
                                                                                                    
                                                                                                    
                                                                                                    
                                                                                                    
                                                                                                    
                                                                                                    
                                                                                                    
                                                                                                    
                           
<?xpacket end="w"?></metadata>
<defs>
    <style>
      .cls-1 {
        fill: #333;
        fill-rule: evenodd;
      }
    </style>
  </defs>
  <path id="Shape_667_copy" data-name="Shape 667 copy" class="cls-1" d="M1072.01,896.52l-2.02.154a1.019,1.019,0,0,0,.02-0.174,2.284,2.284,0,0,0-.06-0.525H1070l1.01,0.008v-3.99H1065v3.99h0.05a2.492,2.492,0,1,1-.01.985l-0.51,0a0.2,0.2,0,0,1-.04.007l-6.53.006a2.476,2.476,0,0,0,.05-0.475,2.5,2.5,0,0,1-5,0,2.476,2.476,0,0,0,.05.475l-2.55-.006a0.5,0.5,0,0,1-.52-0.487V885.5a0.5,0.5,0,0,1,.52-0.487h13.98a0.5,0.5,0,0,1,.51.487v1.487h3.44a0.471,0.471,0,0,1,.37.189l3.16,3.82v0.249a0.532,0.532,0,0,1,.04.18v5.093Zm-16.5,1.467a1.486,1.486,0,1,0-1.49-1.486A1.491,1.491,0,0,0,1055.51,897.987ZM1064,886h-13v10l2-.014h0.07a2.5,2.5,0,0,1,4.88,0L1064,896V886Zm3.49,12a1.494,1.494,0,1,0-1.5-1.494A1.5,1.5,0,0,0,1067.49,898Zm0.5-10-2.99,0v2.986h5.48Z" transform="translate(-1046 -877)"/>
</svg>
