<svg xmlns="http://www.w3.org/2000/svg" width="30" height="30" viewBox="0 0 30 30">
  <metadata><?xpacket begin="﻿" id="W5M0MpCehiHzreSzNTczkc9d"?>
<x:xmpmeta xmlns:x="adobe:ns:meta/" x:xmptk="Adobe XMP Core 5.6-c138 79.159824, 2016/09/14-01:09:01        ">
   <rdf:RDF xmlns:rdf="http://www.w3.org/1999/02/22-rdf-syntax-ns#">
      <rdf:Description rdf:about=""/>
   </rdf:RDF>
</x:xmpmeta>
                                                                                                    
                                                                                                    
                                                                                                    
                                                                                                    
                                                                                                    
                                                                                                    
                                                                                                    
                                                                                                    
                                                                                                    
                                                                                                    
                                                                                                    
                                                                                                    
                                                                                                    
                                                                                                    
                                                                                                    
                                                                                                    
                                                                                                    
                                                                                                    
                                                                                                    
                                                                                                    
                           
<?xpacket end="w"?></metadata>
<defs>
    <style>
      .cls-1 {
        fill: #333;
        fill-rule: evenodd;
      }
    </style>
  </defs>
  <path class="cls-1" d="M1075.51,921.014h-4.5V921.5a0.481,0.481,0,0,1-.22.4l-0.04.028a0.205,0.205,0,0,0-.04.049l-0.7.485v0.027a0.569,0.569,0,0,1-.62.5h-0.17a0.535,0.535,0,0,1-.2.063,0.493,0.493,0,0,1-.23-0.054s-0.01-.007-0.01-0.009h-0.97A1.734,1.734,0,0,1,1066,924h-1.31c-0.01,0-.01.006-0.01,0.007a1.02,1.02,0,0,0-.47,1,1.116,1.116,0,0,0,.51,1.017,0.5,0.5,0,0,1,.28.587,0.58,0.58,0,0,1-.56.384h-3.53a7.3,7.3,0,0,0-.7,2.373,1.394,1.394,0,0,0,.31,1.062,2.2,2.2,0,0,0,1.64.544,0.486,0.486,0,0,1,.27.1,2.106,2.106,0,0,1,1.56,2.066v0.733a2.086,2.086,0,0,1-2.04,2.132h-7.9a2.093,2.093,0,0,1-2.04-2.132v-0.733a2.141,2.141,0,0,1,1.14-1.9,3.487,3.487,0,0,1,.35-2.611l1.51-3.394a0.916,0.916,0,0,0,0-.726,0.963,0.963,0,0,0-.5-0.5H1054a1.76,1.76,0,0,1-2-2v-3a1.76,1.76,0,0,1,2-2h12a1.733,1.733,0,0,1,1.8,1h1.59a0.569,0.569,0,0,1,.62.5v0.063l0.78,0.526a0.484,0.484,0,0,1,.22.4V920h4.5A0.506,0.506,0,0,1,1075.51,921.014Zm-12.27,4.941a2.287,2.287,0,0,1-.2-0.952,2.921,2.921,0,0,1-.04-1l-0.05.053a6.553,6.553,0,0,0-1.38,1.9h1.67ZM1053,933.116v0.765a1.073,1.073,0,0,0,1.03,1.112h7.95a1.065,1.065,0,0,0,1.02-1.112v-0.765a1.066,1.066,0,0,0-1.02-1.113h-7.63l-0.34,0A1.072,1.072,0,0,0,1053,933.116Zm1.49-4.082a2.523,2.523,0,0,0-.27,1.966h4.94l0.47,0a2.362,2.362,0,0,1-.51-1.738,8.677,8.677,0,0,1,.94-3v-0.014c0.01-.019.03-0.036,0.04-0.056a17.659,17.659,0,0,1,1.32-2.187h-4l-1.45.011c0.02,0.044.04,0.088,0.06,0.134a1.8,1.8,0,0,1-.01,1.454Zm12.5-10.1c-0.01-.729-0.2-0.938-0.99-0.938h-12c-0.82,0-1,.211-1,1v3c0,0.79.18,1,1,1h12c0.79,0,.98-0.209.99-0.938v-3.124ZM1069,919h-1c0-.164-0.11,0,0,0v3c0,0.164.09,0,.2,0h0.59c0.11,0,.21.169,0.21,0l-0.01-2.7C1068.99,919.13,1069.11,919,1069,919Z" transform="translate(-1049 -911.5)"/>
</svg>
